<svg xmlns="http://www.w3.org/2000/svg" width="1920" height="730" viewBox="0 0 1920 730">
  <g id="CoverNight" transform="translate(-7 -112)">
    <g id="FadeGroup">
      <g id="Bush1" transform="translate(166.749 765)">
        <path id="Subtraction_2" d="M86.866,33H6.134A23.424,23.424,0,0,1,6,30.5,24.012,24.012,0,0,1,9.183,18.628a31.573,31.573,0,0,1,8.679-9.695A42.983,42.983,0,0,1,30.736,2.4a53.039,53.039,0,0,1,31.529,0A42.985,42.985,0,0,1,75.138,8.933a31.573,31.573,0,0,1,8.68,9.695A24.012,24.012,0,0,1,87,30.5a23.425,23.425,0,0,1-.134,2.5Z" transform="translate(14.251 0)" fill="#116320"/>
        <path id="Subtraction_1" d="M61.251,16H.749A17.432,17.432,0,0,1,4.705,9.637a26.575,26.575,0,0,1,6.788-5.071,37.369,37.369,0,0,1,8.979-3.354,46.316,46.316,0,0,1,21.055,0,37.371,37.371,0,0,1,8.979,3.354,26.575,26.575,0,0,1,6.789,5.071A17.434,17.434,0,0,1,61.25,16h0Z" transform="translate(-0.749 17)" fill="#389a38"/>
        <path id="Subtraction_5" d="M83.867,35H43V2h.5A51.86,51.86,0,0,1,59.264,4.4a42.994,42.994,0,0,1,12.874,6.537,31.576,31.576,0,0,1,8.68,9.695A24.008,24.008,0,0,1,84,32.5a23.4,23.4,0,0,1-.134,2.5Z" transform="translate(17.251 -2)" fill="rgba(0,0,0,0.1)"/>
        <path id="Subtraction_3" d="M67.251,16H6.75a17.432,17.432,0,0,1,3.956-6.363,26.575,26.575,0,0,1,6.788-5.071,37.369,37.369,0,0,1,8.979-3.354,46.315,46.315,0,0,1,21.054,0,37.371,37.371,0,0,1,8.979,3.354,26.577,26.577,0,0,1,6.789,5.071A17.434,17.434,0,0,1,67.251,16h0Z" transform="translate(55.251 17)" fill="#389a38"/>
        <path id="Subtraction_7" d="M403.5,20H373.251V4a45.442,45.442,0,0,1,10.527,1.212,37.383,37.383,0,0,1,8.978,3.354,26.559,26.559,0,0,1,6.789,5.071A17.451,17.451,0,0,1,403.5,20Z" transform="translate(-281 13)" fill="rgba(0,0,0,0.1)"/>
        <path id="Subtraction_9" d="M404.251,18H374V2a45.382,45.382,0,0,1,10.526,1.212,37.377,37.377,0,0,1,8.979,3.354,26.559,26.559,0,0,1,6.789,5.071A17.426,17.426,0,0,1,404.25,18Z" transform="translate(-343.749 15)" fill="rgba(0,0,0,0.1)"/>
      </g>
      <g id="Building1" transform="translate(-291 75)">
        <rect id="Building" width="193" height="343" transform="translate(864 380)" fill="#5490a2"/>
        <rect id="BuildingShadow" width="96" height="343" transform="translate(961 380)" fill="rgba(0,0,0,0.1)"/>
        <g id="Door" transform="translate(885 631)">
          <g id="DoorFrame" fill="#714825">
            <path d="M 54.5 94.5 L 1.5 94.5 L 1.5 1.5 L 54.5 1.5 L 54.5 94.5 Z" stroke="none"/>
            <path d="M 3 3 L 3 93 L 53 93 L 53 3 L 3 3 M 0 0 L 56 0 L 56 96 L 0 96 L 0 0 Z" stroke="none" fill="#b7b7b7"/>
          </g>
          <g id="DoorHandle" transform="translate(41 45)" fill="#b7b7b7" stroke="#b7b7b7" stroke-width="1">
            <circle cx="3" cy="3" r="3" stroke="none"/>
            <circle cx="3" cy="3" r="2.5" fill="none"/>
          </g>
        </g>
        <g id="WindowDay" transform="translate(892 416)">
          <g id="Rectangle_3" fill="#666" stroke="#b7b7b7" stroke-width="3">
            <rect width="42" height="60" stroke="none"/>
            <rect x="1.5" y="1.5" width="39" height="57" fill="none"/>
          </g>
          <line id="Line_3" x2="41" transform="translate(0.5 30.5)" fill="none" stroke="#b7b7b7" stroke-width="1"/>
          <line id="Line_4" y2="58" transform="translate(21.5 0.5)" fill="none" stroke="#b7b7b7" stroke-width="1"/>
          <rect id="Rectangle_5" width="39" height="3" transform="matrix(0.719, -0.695, 0.695, 0.719, 0.456, 27.129)" fill="rgba(183,183,183,0.5)"/>
          <rect id="Rectangle_6" width="30" height="1" transform="matrix(0.719, -0.695, 0.695, 0.719, 2.175, 22.434)" fill="rgba(183,183,183,0.5)"/>
          <rect id="Shadow" width="21" height="60" transform="translate(21)" fill="rgba(0,0,0,0.05)"/>
        </g>
        <g id="WindowDay-2" transform="translate(988 631)">
          <g id="Rectangle_3-2" fill="#666" stroke="#b7b7b7" stroke-width="3">
            <rect width="42" height="60" stroke="none"/>
            <rect x="1.5" y="1.5" width="39" height="57" fill="none"/>
          </g>
          <line id="Line_3-2" x2="41" transform="translate(0.5 30.5)" fill="none" stroke="#b7b7b7" stroke-width="1"/>
          <line id="Line_4-2" y2="58" transform="translate(21.5 0.5)" fill="none" stroke="#b7b7b7" stroke-width="1"/>
          <rect id="Rectangle_5-2" width="39" height="3" transform="matrix(0.719, -0.695, 0.695, 0.719, 0.456, 27.129)" fill="rgba(183,183,183,0.5)"/>
          <rect id="Rectangle_6-2" width="30" height="1" transform="matrix(0.719, -0.695, 0.695, 0.719, 2.175, 22.434)" fill="rgba(183,183,183,0.5)"/>
          <rect id="Shadow-2" width="21" height="60" transform="translate(21)" fill="rgba(0,0,0,0.05)"/>
        </g>
        <g id="WindowDay-3" transform="translate(988 522)">
          <g id="Rectangle_3-3" fill="#666" stroke="#b7b7b7" stroke-width="3">
            <rect width="42" height="60" stroke="none"/>
            <rect x="1.5" y="1.5" width="39" height="57" fill="none"/>
          </g>
          <line id="Line_3-3" x2="41" transform="translate(0.5 30.5)" fill="none" stroke="#b7b7b7" stroke-width="1"/>
          <line id="Line_4-3" y2="58" transform="translate(21.5 0.5)" fill="none" stroke="#b7b7b7" stroke-width="1"/>
          <rect id="Rectangle_5-3" width="39" height="3" transform="matrix(0.719, -0.695, 0.695, 0.719, 0.456, 27.129)" fill="rgba(183,183,183,0.5)"/>
          <rect id="Rectangle_6-3" width="30" height="1" transform="matrix(0.719, -0.695, 0.695, 0.719, 2.175, 22.434)" fill="rgba(183,183,183,0.5)"/>
          <rect id="Shadow-3" width="21" height="60" transform="translate(21)" fill="rgba(0,0,0,0.05)"/>
        </g>
        <rect id="Roof" width="220" height="15" transform="translate(851 365)" fill="#444"/>
        <rect id="RoofShadow" width="193" height="6" transform="translate(864 380)" fill="rgba(0,0,0,0.1)"/>
        <rect id="RoofShadow-2" width="110" height="15" transform="translate(961 365)" fill="rgba(0,0,0,0.1)"/>
        <rect id="Rectangle_7" width="11" height="13" transform="translate(885 352)" fill="#555"/>
        <rect id="Rectangle_8" width="11" height="13" transform="translate(900 352)" fill="#444"/>
      </g>
      <g id="Building2" transform="translate(-285 2)">
        <rect id="Building-2" width="183.15" height="121" transform="translate(312.577 677)" fill="#915733"/>
        <rect id="BuildingShadow-2" width="91.058" height="121" transform="translate(404.67 677)" fill="rgba(0,0,0,0.1)"/>
        <rect id="Rectangle_9" width="18.672" height="25" transform="translate(350.953 597)" fill="#915733"/>
        <path id="Path_9" d="M0,0H28.008V8H0Z" transform="translate(346.285 589)" fill="#444"/>
        <rect id="Rectangle_11" width="18.672" height="3" transform="translate(350.953 597)" fill="rgba(0,0,0,0.1)"/>
        <path id="Roof-2" d="M296.381,691.423h218l-26.476-55.678H324.415Z" transform="translate(-1 -14.423)" fill="#301c11"/>
        <rect id="RoofShadow-3" width="180.562" height="6" transform="translate(314.776 677)" fill="rgba(0,0,0,0.1)"/>
        <g id="DoorFrame-2" transform="translate(332.116 712)" fill="#7d7d7d" stroke="#b7b7b7" stroke-linejoin="round" stroke-width="3">
          <rect width="56.017" height="108" rx="24" stroke="none"/>
          <rect x="1.5" y="1.5" width="53.017" height="105" rx="22.5" fill="none"/>
        </g>
        <g id="DoorHandle-2" transform="translate(343.619 760)" fill="#b7b7b7" stroke="#b7b7b7" stroke-linejoin="round" stroke-width="3">
          <ellipse cx="3.501" cy="3" rx="3.501" ry="3" stroke="none"/>
          <ellipse cx="3.501" cy="3" rx="2.001" ry="1.5" fill="none"/>
        </g>
        <g id="Window" transform="translate(429.482 703)">
          <g id="Rectangle_3-4" fill="#666" stroke="#b7b7b7" stroke-width="3">
            <rect width="42" height="60" stroke="none"/>
            <rect x="1.5" y="1.5" width="39" height="57" fill="none"/>
          </g>
          <line id="Line_3-4" x2="41" transform="translate(0.5 30.5)" fill="none" stroke="#b7b7b7" stroke-width="1"/>
          <line id="Line_4-4" y2="58" transform="translate(21.5 0.5)" fill="none" stroke="#b7b7b7" stroke-width="1"/>
          <rect id="Rectangle_5-4" width="39" height="3" transform="matrix(0.719, -0.695, 0.695, 0.719, 0.456, 27.129)" fill="rgba(183,183,183,0.5)"/>
          <rect id="Rectangle_6-4" width="30" height="1" transform="matrix(0.719, -0.695, 0.695, 0.719, 2.175, 22.434)" fill="rgba(183,183,183,0.5)"/>
          <rect id="Shadow-4" width="21" height="60" transform="translate(21)" fill="rgba(0,0,0,0.05)"/>
        </g>
        <path id="RoofShadow-4" d="M509.715,678.24l-26.354-55.678h-82.39V678.24Z" transform="translate(3.669 -1.24)" fill="rgba(0,0,0,0.1)"/>
      </g>
      <g id="Building5">
        <rect id="Rectangle_22" width="197" height="672.806" transform="translate(1165 125.194)" fill="#888"/>
        <rect id="Rectangle_27" width="99" height="672.806" transform="translate(1263 125.194)" fill="rgba(0,0,0,0.1)"/>
        <rect id="Rectangle_30" width="213" height="17" transform="translate(1157 125)" fill="#444"/>
        <rect id="Rectangle_31" width="197" height="8" transform="translate(1165 142)" fill="rgba(0,0,0,0.1)"/>
        <rect id="Rectangle_45" width="107" height="17" transform="translate(1263 125)" fill="rgba(0,0,0,0.1)"/>
        <rect id="Rectangle_55" width="11" height="13" transform="translate(1174 112)" fill="#555"/>
        <rect id="Rectangle_56" width="11" height="13" transform="translate(1192 112)" fill="#444"/>
        <rect id="Rectangle_57" width="11" height="13" transform="translate(1274 112)" fill="#555"/>
        <g id="Window-2" transform="translate(1288 162)">
          <g id="Rectangle_3-5" fill="#f9d252" stroke="#b7b7b7" stroke-width="3">
            <rect width="42" height="60" stroke="none"/>
            <rect x="1.5" y="1.5" width="39" height="57" fill="none"/>
          </g>
          <line id="Line_3-5" x2="41" transform="translate(0.5 30.5)" fill="none" stroke="#b7b7b7" stroke-width="1"/>
          <line id="Line_4-5" y2="58" transform="translate(21.5 0.5)" fill="none" stroke="#b7b7b7" stroke-width="1"/>
          <rect id="Rectangle_5-5" width="39" height="3" transform="matrix(0.719, -0.695, 0.695, 0.719, 0.456, 27.129)" fill="rgba(183,183,183,0.5)"/>
          <rect id="Rectangle_6-5" width="30" height="1" transform="matrix(0.719, -0.695, 0.695, 0.719, 2.175, 22.434)" fill="rgba(183,183,183,0.5)"/>
          <rect id="Shadow-5" width="21" height="60" transform="translate(21)" fill="rgba(0,0,0,0.05)"/>
        </g>
        <g id="Window-3" transform="translate(1288 271)">
          <g id="Rectangle_3-6" fill="#666" stroke="#b7b7b7" stroke-width="3">
            <rect width="42" height="60" stroke="none"/>
            <rect x="1.5" y="1.5" width="39" height="57" fill="none"/>
          </g>
          <line id="Line_3-6" x2="41" transform="translate(0.5 30.5)" fill="none" stroke="#b7b7b7" stroke-width="1"/>
          <line id="Line_4-6" y2="58" transform="translate(21.5 0.5)" fill="none" stroke="#b7b7b7" stroke-width="1"/>
          <rect id="Rectangle_5-6" width="39" height="3" transform="matrix(0.719, -0.695, 0.695, 0.719, 0.456, 27.129)" fill="rgba(183,183,183,0.5)"/>
          <rect id="Rectangle_6-6" width="30" height="1" transform="matrix(0.719, -0.695, 0.695, 0.719, 2.175, 22.434)" fill="rgba(183,183,183,0.5)"/>
          <rect id="Shadow-6" width="21" height="60" transform="translate(21)" fill="rgba(0,0,0,0.05)"/>
        </g>
        <g id="Window-4" transform="translate(1288 380)">
          <g id="Rectangle_3-7" fill="#666" stroke="#b7b7b7" stroke-width="3">
            <rect width="42" height="60" stroke="none"/>
            <rect x="1.5" y="1.5" width="39" height="57" fill="none"/>
          </g>
          <line id="Line_3-7" x2="41" transform="translate(0.5 30.5)" fill="none" stroke="#b7b7b7" stroke-width="1"/>
          <line id="Line_4-7" y2="58" transform="translate(21.5 0.5)" fill="none" stroke="#b7b7b7" stroke-width="1"/>
          <rect id="Rectangle_5-7" width="39" height="3" transform="matrix(0.719, -0.695, 0.695, 0.719, 0.456, 27.129)" fill="rgba(183,183,183,0.5)"/>
          <rect id="Rectangle_6-7" width="30" height="1" transform="matrix(0.719, -0.695, 0.695, 0.719, 2.175, 22.434)" fill="rgba(183,183,183,0.5)"/>
          <rect id="Shadow-7" width="21" height="60" transform="translate(21)" fill="rgba(0,0,0,0.05)"/>
        </g>
        <g id="Window-5" transform="translate(1288 489)">
          <g id="Rectangle_3-8" fill="#f9d252" stroke="#b7b7b7" stroke-width="3">
            <rect width="42" height="60" stroke="none"/>
            <rect x="1.5" y="1.5" width="39" height="57" fill="none"/>
          </g>
          <line id="Line_3-8" x2="41" transform="translate(0.5 30.5)" fill="none" stroke="#b7b7b7" stroke-width="1"/>
          <line id="Line_4-8" y2="58" transform="translate(21.5 0.5)" fill="none" stroke="#b7b7b7" stroke-width="1"/>
          <rect id="Rectangle_5-8" width="39" height="3" transform="matrix(0.719, -0.695, 0.695, 0.719, 0.456, 27.129)" fill="rgba(183,183,183,0.5)"/>
          <rect id="Rectangle_6-8" width="30" height="1" transform="matrix(0.719, -0.695, 0.695, 0.719, 2.175, 22.434)" fill="rgba(183,183,183,0.5)"/>
          <rect id="Shadow-8" width="21" height="60" transform="translate(21)" fill="rgba(0,0,0,0.05)"/>
        </g>
        <g id="Window-6" transform="translate(1288 598)">
          <g id="Rectangle_3-9" fill="#666" stroke="#b7b7b7" stroke-width="3">
            <rect width="42" height="60" stroke="none"/>
            <rect x="1.5" y="1.5" width="39" height="57" fill="none"/>
          </g>
          <line id="Line_3-9" x2="41" transform="translate(0.5 30.5)" fill="none" stroke="#b7b7b7" stroke-width="1"/>
          <line id="Line_4-9" y2="58" transform="translate(21.5 0.5)" fill="none" stroke="#b7b7b7" stroke-width="1"/>
          <rect id="Rectangle_5-9" width="39" height="3" transform="matrix(0.719, -0.695, 0.695, 0.719, 0.456, 27.129)" fill="rgba(183,183,183,0.5)"/>
          <rect id="Rectangle_6-9" width="30" height="1" transform="matrix(0.719, -0.695, 0.695, 0.719, 2.175, 22.434)" fill="rgba(183,183,183,0.5)"/>
          <rect id="Shadow-9" width="21" height="60" transform="translate(21)" fill="rgba(0,0,0,0.05)"/>
        </g>
        <g id="Window-7" transform="translate(1197 598)">
          <g id="Rectangle_3-10" fill="#666" stroke="#b7b7b7" stroke-width="3">
            <rect width="42" height="60" stroke="none"/>
            <rect x="1.5" y="1.5" width="39" height="57" fill="none"/>
          </g>
          <line id="Line_3-10" x2="41" transform="translate(0.5 30.5)" fill="none" stroke="#b7b7b7" stroke-width="1"/>
          <line id="Line_4-10" y2="58" transform="translate(21.5 0.5)" fill="none" stroke="#b7b7b7" stroke-width="1"/>
          <rect id="Rectangle_5-10" width="39" height="3" transform="matrix(0.719, -0.695, 0.695, 0.719, 0.456, 27.129)" fill="rgba(183,183,183,0.5)"/>
          <rect id="Rectangle_6-10" width="30" height="1" transform="matrix(0.719, -0.695, 0.695, 0.719, 2.175, 22.434)" fill="rgba(183,183,183,0.5)"/>
          <rect id="Shadow-10" width="21" height="60" transform="translate(21)" fill="rgba(0,0,0,0.05)"/>
        </g>
        <g id="Window-8" transform="translate(1197 489)">
          <g id="Rectangle_3-11" fill="#666" stroke="#b7b7b7" stroke-width="3">
            <rect width="42" height="60" stroke="none"/>
            <rect x="1.5" y="1.5" width="39" height="57" fill="none"/>
          </g>
          <line id="Line_3-11" x2="41" transform="translate(0.5 30.5)" fill="none" stroke="#b7b7b7" stroke-width="1"/>
          <line id="Line_4-11" y2="58" transform="translate(21.5 0.5)" fill="none" stroke="#b7b7b7" stroke-width="1"/>
          <rect id="Rectangle_5-11" width="39" height="3" transform="matrix(0.719, -0.695, 0.695, 0.719, 0.456, 27.129)" fill="rgba(183,183,183,0.5)"/>
          <rect id="Rectangle_6-11" width="30" height="1" transform="matrix(0.719, -0.695, 0.695, 0.719, 2.175, 22.434)" fill="rgba(183,183,183,0.5)"/>
          <rect id="Shadow-11" width="21" height="60" transform="translate(21)" fill="rgba(0,0,0,0.05)"/>
        </g>
        <g id="Window-9" transform="translate(1197 380)">
          <g id="Rectangle_3-12" fill="#f9d252" stroke="#b7b7b7" stroke-width="3">
            <rect width="42" height="60" stroke="none"/>
            <rect x="1.5" y="1.5" width="39" height="57" fill="none"/>
          </g>
          <line id="Line_3-12" x2="41" transform="translate(0.5 30.5)" fill="none" stroke="#b7b7b7" stroke-width="1"/>
          <line id="Line_4-12" y2="58" transform="translate(21.5 0.5)" fill="none" stroke="#b7b7b7" stroke-width="1"/>
          <rect id="Rectangle_5-12" width="39" height="3" transform="matrix(0.719, -0.695, 0.695, 0.719, 0.456, 27.129)" fill="rgba(183,183,183,0.5)"/>
          <rect id="Rectangle_6-12" width="30" height="1" transform="matrix(0.719, -0.695, 0.695, 0.719, 2.175, 22.434)" fill="rgba(183,183,183,0.5)"/>
          <rect id="Shadow-12" width="21" height="60" transform="translate(21)" fill="rgba(0,0,0,0.05)"/>
        </g>
        <g id="Window-10" transform="translate(1197 271)">
          <g id="Rectangle_3-13" fill="#666" stroke="#b7b7b7" stroke-width="3">
            <rect width="42" height="60" stroke="none"/>
            <rect x="1.5" y="1.5" width="39" height="57" fill="none"/>
          </g>
          <line id="Line_3-13" x2="41" transform="translate(0.5 30.5)" fill="none" stroke="#b7b7b7" stroke-width="1"/>
          <line id="Line_4-13" y2="58" transform="translate(21.5 0.5)" fill="none" stroke="#b7b7b7" stroke-width="1"/>
          <rect id="Rectangle_5-13" width="39" height="3" transform="matrix(0.719, -0.695, 0.695, 0.719, 0.456, 27.129)" fill="rgba(183,183,183,0.5)"/>
          <rect id="Rectangle_6-13" width="30" height="1" transform="matrix(0.719, -0.695, 0.695, 0.719, 2.175, 22.434)" fill="rgba(183,183,183,0.5)"/>
          <rect id="Shadow-13" width="21" height="60" transform="translate(21)" fill="rgba(0,0,0,0.05)"/>
        </g>
        <g id="Window-11" transform="translate(1197 162)">
          <g id="Rectangle_3-14" fill="#f9d252" stroke="#b7b7b7" stroke-width="3">
            <rect width="42" height="60" stroke="none"/>
            <rect x="1.5" y="1.5" width="39" height="57" fill="none"/>
          </g>
          <line id="Line_3-14" x2="41" transform="translate(0.5 30.5)" fill="none" stroke="#b7b7b7" stroke-width="1"/>
          <line id="Line_4-14" y2="58" transform="translate(21.5 0.5)" fill="none" stroke="#b7b7b7" stroke-width="1"/>
          <rect id="Rectangle_5-14" width="39" height="3" transform="matrix(0.719, -0.695, 0.695, 0.719, 0.456, 27.129)" fill="rgba(183,183,183,0.5)"/>
          <rect id="Rectangle_6-14" width="30" height="1" transform="matrix(0.719, -0.695, 0.695, 0.719, 2.175, 22.434)" fill="rgba(183,183,183,0.5)"/>
          <rect id="Shadow-14" width="21" height="60" transform="translate(21)" fill="rgba(0,0,0,0.05)"/>
        </g>
        <g id="Rectangle_48" transform="translate(1212 707)" fill="#666" stroke="#b7b7b7" stroke-width="3">
          <rect width="103" height="96" stroke="none"/>
          <rect x="1.5" y="1.5" width="100" height="93" fill="none"/>
        </g>
        <line id="Line_5" y2="90" transform="translate(1263 708)" fill="none" stroke="#b7b7b7" stroke-width="2"/>
        <rect id="Rectangle_49" width="39" height="3" transform="matrix(0.719, -0.695, 0.695, 0.719, 1212.175, 734.434)" fill="rgba(183,183,183,0.5)"/>
        <path id="Subtraction_11" d="M8.539,29.251h0L8,28.691V25.6L34.511,0l2.083,2.158L8.54,29.25Z" transform="translate(1255 707.037)" fill="rgba(183,183,183,0.5)"/>
        <rect id="Rectangle_51" width="31" height="1" transform="matrix(0.719, -0.695, 0.695, 0.719, 1213.175, 730.434)" fill="rgba(183,183,183,0.5)"/>
        <rect id="Rectangle_52" width="30" height="1" transform="matrix(0.719, -0.695, 0.695, 0.719, 1263.175, 729.434)" fill="rgba(183,183,183,0.5)"/>
        <rect id="Rectangle_54" width="52" height="92" transform="translate(1263 707)" fill="rgba(0,0,0,0.1)"/>
        <rect id="Rectangle_58" width="11" height="13" transform="translate(1292 112)" fill="#444"/>
      </g>
      <g id="Building4">
        <rect id="Rectangle_25" width="156" height="449.406" transform="translate(1712 348.594)" fill="#5490a2"/>
        <rect id="Rectangle_29" width="78" height="449.406" transform="translate(1790 348.594)" fill="rgba(0,0,0,0.1)"/>
        <rect id="Rectangle_42" width="156" height="8" transform="translate(1712 349)" fill="rgba(0,0,0,0.1)"/>
        <rect id="Rectangle_43" width="178" height="18" transform="translate(1701 331)" fill="#444"/>
        <rect id="Rectangle_44" width="89" height="18" transform="translate(1790 331)" fill="rgba(0,0,0,0.1)"/>
        <g id="Rectangle_62" transform="translate(1764 707)" fill="#666" stroke="#b7b7b7" stroke-width="3">
          <rect width="52" height="96" stroke="none"/>
          <rect x="1.5" y="1.5" width="49" height="93" fill="none"/>
        </g>
        <g id="Window-12" transform="translate(1769 598)">
          <g id="Rectangle_3-15" fill="#666" stroke="#b7b7b7" stroke-width="3">
            <rect width="42" height="60" stroke="none"/>
            <rect x="1.5" y="1.5" width="39" height="57" fill="none"/>
          </g>
          <line id="Line_3-15" x2="41" transform="translate(0.5 30.5)" fill="none" stroke="#b7b7b7" stroke-width="1"/>
          <line id="Line_4-15" y2="58" transform="translate(21.5 0.5)" fill="none" stroke="#b7b7b7" stroke-width="1"/>
          <rect id="Rectangle_5-15" width="39" height="3" transform="matrix(0.719, -0.695, 0.695, 0.719, 0.456, 27.129)" fill="rgba(183,183,183,0.5)"/>
          <rect id="Rectangle_6-15" width="30" height="1" transform="matrix(0.719, -0.695, 0.695, 0.719, 2.175, 22.434)" fill="rgba(183,183,183,0.5)"/>
          <rect id="Shadow-15" width="21" height="60" transform="translate(21)" fill="rgba(0,0,0,0.05)"/>
        </g>
        <g id="Window-13" transform="translate(1769 380)">
          <g id="Rectangle_3-16" fill="#666" stroke="#b7b7b7" stroke-width="3">
            <rect width="42" height="60" stroke="none"/>
            <rect x="1.5" y="1.5" width="39" height="57" fill="none"/>
          </g>
          <line id="Line_3-16" x2="41" transform="translate(0.5 30.5)" fill="none" stroke="#b7b7b7" stroke-width="1"/>
          <line id="Line_4-16" y2="58" transform="translate(21.5 0.5)" fill="none" stroke="#b7b7b7" stroke-width="1"/>
          <rect id="Rectangle_5-16" width="39" height="3" transform="matrix(0.719, -0.695, 0.695, 0.719, 0.456, 27.129)" fill="rgba(183,183,183,0.5)"/>
          <rect id="Rectangle_6-16" width="30" height="1" transform="matrix(0.719, -0.695, 0.695, 0.719, 2.175, 22.434)" fill="rgba(183,183,183,0.5)"/>
          <rect id="Shadow-16" width="21" height="60" transform="translate(21)" fill="rgba(0,0,0,0.05)"/>
        </g>
        <g id="Window-14" transform="translate(1769 489)">
          <g id="Rectangle_3-17" fill="#666" stroke="#b7b7b7" stroke-width="3">
            <rect width="42" height="60" stroke="none"/>
            <rect x="1.5" y="1.5" width="39" height="57" fill="none"/>
          </g>
          <line id="Line_3-17" x2="41" transform="translate(0.5 30.5)" fill="none" stroke="#b7b7b7" stroke-width="1"/>
          <line id="Line_4-17" y2="58" transform="translate(21.5 0.5)" fill="none" stroke="#b7b7b7" stroke-width="1"/>
          <rect id="Rectangle_5-17" width="39" height="3" transform="matrix(0.719, -0.695, 0.695, 0.719, 0.456, 27.129)" fill="rgba(183,183,183,0.5)"/>
          <rect id="Rectangle_6-17" width="30" height="1" transform="matrix(0.719, -0.695, 0.695, 0.719, 2.175, 22.434)" fill="rgba(183,183,183,0.5)"/>
          <rect id="Shadow-17" width="21" height="60" transform="translate(21)" fill="rgba(0,0,0,0.05)"/>
        </g>
        <rect id="Rectangle_64" width="11" height="13" transform="translate(1718 318)" fill="#555"/>
        <rect id="Rectangle_65" width="11" height="13" transform="translate(1733 318)" fill="#444"/>
        <rect id="Rectangle_77" width="39" height="3" transform="matrix(0.719, -0.695, 0.695, 0.719, 1764.456, 734.129)" fill="rgba(183,183,183,0.5)"/>
        <rect id="Rectangle_78" width="30" height="1" transform="matrix(0.719, -0.695, 0.695, 0.719, 1766.175, 729.434)" fill="rgba(183,183,183,0.5)"/>
        <rect id="Rectangle_63" width="26" height="92" transform="translate(1790 707)" fill="rgba(0,0,0,0.1)"/>
      </g>
      <g id="Building3">
        <rect id="Rectangle_21" width="242" height="427.27" transform="translate(289 370.73)" fill="#202e60"/>
        <rect id="Rectangle_26" width="121" height="427.27" transform="translate(410 370.73)" fill="rgba(0,0,0,0.1)"/>
        <rect id="Rectangle_38" width="242" height="8" transform="translate(289 371)" fill="rgba(0,0,0,0.1)"/>
        <rect id="Rectangle_46" width="282" height="45" transform="translate(269 326)" fill="#444"/>
        <rect id="Rectangle_47" width="141" height="45" transform="translate(410 326)" fill="rgba(0,0,0,0.1)"/>
        <g id="Window-15" transform="translate(328 399)">
          <g id="Rectangle_3-18" fill="#f9d252" stroke="#b7b7b7" stroke-width="3">
            <rect width="42" height="60" stroke="none"/>
            <rect x="1.5" y="1.5" width="39" height="57" fill="none"/>
          </g>
          <line id="Line_3-18" x2="41" transform="translate(0.5 30.5)" fill="none" stroke="#b7b7b7" stroke-width="1"/>
          <line id="Line_4-18" y2="58" transform="translate(21.5 0.5)" fill="none" stroke="#b7b7b7" stroke-width="1"/>
          <rect id="Rectangle_5-18" width="39" height="3" transform="matrix(0.719, -0.695, 0.695, 0.719, 0.456, 27.129)" fill="rgba(183,183,183,0.5)"/>
          <rect id="Rectangle_6-18" width="30" height="1" transform="matrix(0.719, -0.695, 0.695, 0.719, 2.175, 22.434)" fill="rgba(183,183,183,0.5)"/>
          <rect id="Shadow-18" width="21" height="60" transform="translate(21)" fill="rgba(0,0,0,0.05)"/>
        </g>
        <g id="Window-16" transform="translate(453 400)">
          <g id="Rectangle_3-19" fill="#666" stroke="#b7b7b7" stroke-width="3">
            <rect width="42" height="60" stroke="none"/>
            <rect x="1.5" y="1.5" width="39" height="57" fill="none"/>
          </g>
          <line id="Line_3-19" x2="41" transform="translate(0.5 30.5)" fill="none" stroke="#b7b7b7" stroke-width="1"/>
          <line id="Line_4-19" y2="58" transform="translate(21.5 0.5)" fill="none" stroke="#b7b7b7" stroke-width="1"/>
          <rect id="Rectangle_5-19" width="39" height="3" transform="matrix(0.719, -0.695, 0.695, 0.719, 0.456, 27.129)" fill="rgba(183,183,183,0.5)"/>
          <rect id="Rectangle_6-19" width="30" height="1" transform="matrix(0.719, -0.695, 0.695, 0.719, 2.175, 22.434)" fill="rgba(183,183,183,0.5)"/>
          <rect id="Shadow-19" width="21" height="60" transform="translate(21)" fill="rgba(0,0,0,0.05)"/>
        </g>
        <g id="DoorFrame-3" transform="translate(453 705)" fill="#b7b7b7">
          <path d="M 54.5 94.5 L 1.5 94.5 L 1.5 1.5 L 54.5 1.5 L 54.5 94.5 Z" stroke="none"/>
          <path d="M 3 3 L 3 93 L 53 93 L 53 3 L 3 3 M 0 0 L 56 0 L 56 96 L 0 96 L 0 0 Z" stroke="none" fill="#b7b7b7"/>
        </g>
        <g id="DoorHandle-3" transform="translate(460 750)" fill="#7e7e7e" stroke="#7e7e7e" stroke-width="1">
          <circle cx="3" cy="3" r="3" stroke="none"/>
          <circle cx="3" cy="3" r="2.5" fill="none"/>
        </g>
        <g id="Window-17" transform="translate(328 501)">
          <g id="Rectangle_3-20" fill="#666" stroke="#b7b7b7" stroke-width="3">
            <rect width="42" height="60" stroke="none"/>
            <rect x="1.5" y="1.5" width="39" height="57" fill="none"/>
          </g>
          <line id="Line_3-20" x2="41" transform="translate(0.5 30.5)" fill="none" stroke="#b7b7b7" stroke-width="1"/>
          <line id="Line_4-20" y2="58" transform="translate(21.5 0.5)" fill="none" stroke="#b7b7b7" stroke-width="1"/>
          <rect id="Rectangle_5-20" width="39" height="3" transform="matrix(0.719, -0.695, 0.695, 0.719, 0.456, 27.129)" fill="rgba(183,183,183,0.5)"/>
          <rect id="Rectangle_6-20" width="30" height="1" transform="matrix(0.719, -0.695, 0.695, 0.719, 2.175, 22.434)" fill="rgba(183,183,183,0.5)"/>
          <rect id="Shadow-20" width="21" height="60" transform="translate(21)" fill="rgba(0,0,0,0.05)"/>
        </g>
        <g id="Window-18" transform="translate(453 602)">
          <g id="Rectangle_3-21" fill="#f9d252" stroke="#b7b7b7" stroke-width="3">
            <rect width="42" height="60" stroke="none"/>
            <rect x="1.5" y="1.5" width="39" height="57" fill="none"/>
          </g>
          <line id="Line_3-21" x2="41" transform="translate(0.5 30.5)" fill="none" stroke="#b7b7b7" stroke-width="1"/>
          <line id="Line_4-21" y2="58" transform="translate(21.5 0.5)" fill="none" stroke="#b7b7b7" stroke-width="1"/>
          <rect id="Rectangle_5-21" width="39" height="3" transform="matrix(0.719, -0.695, 0.695, 0.719, 0.456, 27.129)" fill="rgba(183,183,183,0.5)"/>
          <rect id="Rectangle_6-21" width="30" height="1" transform="matrix(0.719, -0.695, 0.695, 0.719, 2.175, 22.434)" fill="rgba(183,183,183,0.5)"/>
          <rect id="Shadow-21" width="21" height="60" transform="translate(21)" fill="rgba(0,0,0,0.05)"/>
        </g>
        <g id="Window-19" transform="translate(328 602)">
          <g id="Rectangle_3-22" fill="#f9d252" stroke="#b7b7b7" stroke-width="3">
            <rect width="42" height="60" stroke="none"/>
            <rect x="1.5" y="1.5" width="39" height="57" fill="none"/>
          </g>
          <line id="Line_3-22" x2="41" transform="translate(0.5 30.5)" fill="none" stroke="#b7b7b7" stroke-width="1"/>
          <line id="Line_4-22" y2="58" transform="translate(21.5 0.5)" fill="none" stroke="#b7b7b7" stroke-width="1"/>
          <rect id="Rectangle_5-22" width="39" height="3" transform="matrix(0.719, -0.695, 0.695, 0.719, 0.456, 27.129)" fill="rgba(183,183,183,0.5)"/>
          <rect id="Rectangle_6-22" width="30" height="1" transform="matrix(0.719, -0.695, 0.695, 0.719, 2.175, 22.434)" fill="rgba(183,183,183,0.5)"/>
          <rect id="Shadow-22" width="21" height="60" transform="translate(21)" fill="rgba(0,0,0,0.05)"/>
        </g>
        <g id="Window-20" transform="translate(328 703)">
          <g id="Rectangle_3-23" fill="#666" stroke="#b7b7b7" stroke-width="3">
            <rect width="42" height="60" stroke="none"/>
            <rect x="1.5" y="1.5" width="39" height="57" fill="none"/>
          </g>
          <line id="Line_3-23" x2="41" transform="translate(0.5 30.5)" fill="none" stroke="#b7b7b7" stroke-width="1"/>
          <line id="Line_4-23" y2="58" transform="translate(21.5 0.5)" fill="none" stroke="#b7b7b7" stroke-width="1"/>
          <rect id="Rectangle_5-23" width="39" height="3" transform="matrix(0.719, -0.695, 0.695, 0.719, 0.456, 27.129)" fill="rgba(183,183,183,0.5)"/>
          <rect id="Rectangle_6-23" width="30" height="1" transform="matrix(0.719, -0.695, 0.695, 0.719, 2.175, 22.434)" fill="rgba(183,183,183,0.5)"/>
          <rect id="Shadow-23" width="21" height="60" transform="translate(21)" fill="rgba(0,0,0,0.05)"/>
        </g>
        <g id="Rectangle_59" transform="translate(460 712)" fill="#666" stroke="#b7b7b7" stroke-width="1">
          <rect width="42" height="32" stroke="none"/>
          <rect x="0.5" y="0.5" width="41" height="31" fill="none"/>
        </g>
        <rect id="Rectangle_60" width="39" height="3" transform="matrix(0.719, -0.695, 0.695, 0.719, 457.456, 736.129)" fill="rgba(183,183,183,0.5)"/>
        <rect id="Rectangle_61" width="30" height="1" transform="matrix(0.719, -0.695, 0.695, 0.719, 459.175, 731.434)" fill="rgba(183,183,183,0.5)"/>
        <path id="Path_8" d="M0,0H31V15H0Z" transform="translate(314 311)" fill="#777"/>
        <path id="Subtraction_12" d="M42.395,36H10.605a18.614,18.614,0,0,1-3.382-5.52,17.777,17.777,0,0,1,0-12.96A18.616,18.616,0,0,1,10.606,12H42.394a18.615,18.615,0,0,1,3.382,5.52,17.777,17.777,0,0,1,0,12.96A18.614,18.614,0,0,1,42.395,36Z" transform="translate(303 278)" fill="#666"/>
        <path id="Subtraction_14" d="M44.394,34H29V10H44.394a18.6,18.6,0,0,1,3.382,5.521,17.775,17.775,0,0,1,0,12.959A18.6,18.6,0,0,1,44.4,34h0Z" transform="translate(301 280)" fill="rgba(0,0,0,0.1)"/>
        <rect id="Rectangle_72" width="15" height="12" transform="translate(330 314)" fill="rgba(0,0,0,0.1)"/>
      </g>
      <g id="BuildingHouse2">
        <rect id="Rectangle_23" width="229" height="183" transform="translate(1419 615)" fill="#915733"/>
        <rect id="Rectangle_28" width="115" height="183" transform="translate(1533 615)" fill="rgba(0,0,0,0.1)"/>
        <rect id="Rectangle_32" width="265" height="5" transform="translate(1400 610)" fill="#4a4a4a"/>
        <rect id="Rectangle_33" width="229" height="6" transform="translate(1419 615)" fill="rgba(0,0,0,0.1)"/>
        <path id="Subtraction_10" d="M279.207,143H147.5V10.6L279.209,143h0Z" transform="translate(1386 467)" fill="rgba(0,0,0,0.1)"/>
        <g id="Symbol_1_3" transform="translate(1563 705)">
          <g id="DoorFrame-4" fill="#714825">
            <path d="M 54.5 94.5 L 1.5 94.5 L 1.5 1.5 L 54.5 1.5 L 54.5 94.5 Z" stroke="none"/>
            <path d="M 3 3 L 3 93 L 53 93 L 53 3 L 3 3 M 0 0 L 56 0 L 56 96 L 0 96 L 0 0 Z" stroke="none" fill="#b7b7b7"/>
          </g>
          <g id="DoorHandle-4" transform="translate(41 45)" fill="#b7b7b7" stroke="#b7b7b7" stroke-width="1">
            <circle cx="3" cy="3" r="3" stroke="none"/>
            <circle cx="3" cy="3" r="2.5" fill="none"/>
          </g>
        </g>
        <g id="Window-21" transform="translate(1456 709)">
          <g id="Rectangle_3-24" fill="#666" stroke="#b7b7b7" stroke-width="3">
            <rect width="42" height="60" stroke="none"/>
            <rect x="1.5" y="1.5" width="39" height="57" fill="none"/>
          </g>
          <line id="Line_3-24" x2="41" transform="translate(0.5 30.5)" fill="none" stroke="#b7b7b7" stroke-width="1"/>
          <line id="Line_4-24" y2="58" transform="translate(21.5 0.5)" fill="none" stroke="#b7b7b7" stroke-width="1"/>
          <rect id="Rectangle_5-24" width="39" height="3" transform="matrix(0.719, -0.695, 0.695, 0.719, 0.456, 27.129)" fill="rgba(183,183,183,0.5)"/>
          <rect id="Rectangle_6-24" width="30" height="1" transform="matrix(0.719, -0.695, 0.695, 0.719, 2.175, 22.434)" fill="rgba(183,183,183,0.5)"/>
          <rect id="Shadow-24" width="21" height="60" transform="translate(21)" fill="rgba(0,0,0,0.05)"/>
        </g>
        <g id="Window-22" transform="translate(1456 628)">
          <g id="Rectangle_3-25" fill="#f9d252" stroke="#b7b7b7" stroke-width="3">
            <rect width="42" height="60" stroke="none"/>
            <rect x="1.5" y="1.5" width="39" height="57" fill="none"/>
          </g>
          <line id="Line_3-25" x2="41" transform="translate(0.5 30.5)" fill="none" stroke="#b7b7b7" stroke-width="1"/>
          <line id="Line_4-25" y2="58" transform="translate(21.5 0.5)" fill="none" stroke="#b7b7b7" stroke-width="1"/>
          <rect id="Rectangle_5-25" width="39" height="3" transform="matrix(0.719, -0.695, 0.695, 0.719, 0.456, 27.129)" fill="rgba(183,183,183,0.5)"/>
          <rect id="Rectangle_6-25" width="30" height="1" transform="matrix(0.719, -0.695, 0.695, 0.719, 2.175, 22.434)" fill="rgba(183,183,183,0.5)"/>
          <rect id="Shadow-25" width="21" height="60" transform="translate(21)" fill="rgba(0,0,0,0.05)"/>
        </g>
        <rect id="Rectangle_73" width="41" height="98" transform="translate(1436 510)" fill="#915733"/>
        <rect id="Rectangle_74" width="59" height="9" transform="translate(1427 501)" fill="#444"/>
        <path id="Path_1" d="M1419,615h-18.9l133.12-132.688L1665.209,615Z" transform="translate(0 -5)" fill="#444"/>
        <rect id="Rectangle_75" width="30" height="9" transform="translate(1456 501)" fill="rgba(0,0,0,0.1)"/>
        <path id="Subtraction_15" d="M274.211,143l0,0H142.5V10.6L274.209,143h0Z" transform="translate(1391 467)" fill="rgba(0,0,0,0.1)"/>
      </g>
      <g id="Bush1-2" transform="translate(1338.749 765)">
        <path id="Subtraction_2-2" d="M86.866,33H6.134A23.424,23.424,0,0,1,6,30.5,24.012,24.012,0,0,1,9.183,18.628a31.573,31.573,0,0,1,8.679-9.695A42.983,42.983,0,0,1,30.736,2.4a53.039,53.039,0,0,1,31.529,0A42.985,42.985,0,0,1,75.138,8.933a31.573,31.573,0,0,1,8.68,9.695A24.012,24.012,0,0,1,87,30.5a23.425,23.425,0,0,1-.134,2.5Z" transform="translate(14.251 0)" fill="#116320"/>
        <path id="Subtraction_1-2" d="M61.251,16H.749A17.432,17.432,0,0,1,4.705,9.637a26.575,26.575,0,0,1,6.788-5.071,37.369,37.369,0,0,1,8.979-3.354,46.316,46.316,0,0,1,21.055,0,37.371,37.371,0,0,1,8.979,3.354,26.575,26.575,0,0,1,6.789,5.071A17.434,17.434,0,0,1,61.25,16h0Z" transform="translate(-0.749 17)" fill="#389a38"/>
        <path id="Subtraction_5-2" d="M83.867,35H43V2h.5A51.86,51.86,0,0,1,59.264,4.4a42.994,42.994,0,0,1,12.874,6.537,31.576,31.576,0,0,1,8.68,9.695A24.008,24.008,0,0,1,84,32.5a23.4,23.4,0,0,1-.134,2.5Z" transform="translate(17.251 -2)" fill="rgba(0,0,0,0.1)"/>
        <path id="Subtraction_3-2" d="M67.251,16H6.75a17.432,17.432,0,0,1,3.956-6.363,26.575,26.575,0,0,1,6.788-5.071,37.369,37.369,0,0,1,8.979-3.354,46.315,46.315,0,0,1,21.054,0,37.371,37.371,0,0,1,8.979,3.354,26.577,26.577,0,0,1,6.789,5.071A17.434,17.434,0,0,1,67.251,16h0Z" transform="translate(55.251 17)" fill="#389a38"/>
        <path id="Subtraction_7-2" d="M403.5,20H373.251V4a45.442,45.442,0,0,1,10.527,1.212,37.383,37.383,0,0,1,8.978,3.354,26.559,26.559,0,0,1,6.789,5.071A17.451,17.451,0,0,1,403.5,20Z" transform="translate(-281 13)" fill="rgba(0,0,0,0.1)"/>
        <path id="Subtraction_9-2" d="M404.251,18H374V2a45.382,45.382,0,0,1,10.526,1.212,37.377,37.377,0,0,1,8.979,3.354,26.559,26.559,0,0,1,6.789,5.071A17.426,17.426,0,0,1,404.25,18Z" transform="translate(-343.749 15)" fill="rgba(0,0,0,0.1)"/>
      </g>
      <g id="Trees" transform="translate(178.193 684.737)">
        <rect id="Rectangle_84" width="8" height="24" transform="translate(10.807 89.263)" fill="#684515"/>
        <path id="Path_4" d="M547,676.737l-14.011,66.49S527.17,768.569,547,768.885s13.437-25.659,13.437-25.659Z" transform="translate(-532.193 -676.737)" fill="#389a38"/>
        <rect id="Rectangle_85" width="8.5" height="19.722" transform="translate(29.807 93.542)" fill="#684515"/>
        <path id="Subtraction_17" d="M16.356,96.889h-.019l-.336,0V4.737L29.436,71.226a41.46,41.46,0,0,1,.967,7.789,29.384,29.384,0,0,1-.554,6.91,15.529,15.529,0,0,1-2.813,6.409c-2.369,3.022-5.961,4.554-10.679,4.554h0Z" transform="translate(-1.193 -4.737)" fill="rgba(0,0,0,0.1)"/>
        <path id="Path_5" d="M544.976,676.737l-12.1,54.637s-5.023,20.825,12.1,21.085,11.6-21.085,11.6-21.085Z" transform="translate(-511.199 -656.546)" fill="#116320"/>
        <path id="Subtraction_16" d="M13.281,94.652h0l-.279,0V19.064l11.571,54.5A32.466,32.466,0,0,1,25.4,79.83a23.423,23.423,0,0,1-.426,5.6,12.8,12.8,0,0,1-2.29,5.252C20.645,93.315,17.48,94.652,13.281,94.652Z" transform="translate(20.807 1.263)" fill="rgba(0,0,0,0.1)"/>
      </g>
      <g id="Bush1-3" transform="translate(1797.749 765)">
        <path id="Subtraction_2-3" d="M86.866,33H6.134A23.424,23.424,0,0,1,6,30.5,24.012,24.012,0,0,1,9.183,18.628a31.573,31.573,0,0,1,8.679-9.695A42.983,42.983,0,0,1,30.736,2.4a53.039,53.039,0,0,1,31.529,0A42.985,42.985,0,0,1,75.138,8.933a31.573,31.573,0,0,1,8.68,9.695A24.012,24.012,0,0,1,87,30.5a23.425,23.425,0,0,1-.134,2.5Z" transform="translate(14.251 0)" fill="#116320"/>
        <path id="Subtraction_1-3" d="M61.251,16H.749A17.432,17.432,0,0,1,4.705,9.637a26.575,26.575,0,0,1,6.788-5.071,37.369,37.369,0,0,1,8.979-3.354,46.316,46.316,0,0,1,21.055,0,37.371,37.371,0,0,1,8.979,3.354,26.575,26.575,0,0,1,6.789,5.071A17.434,17.434,0,0,1,61.25,16h0Z" transform="translate(-0.749 17)" fill="#389a38"/>
        <path id="Subtraction_5-3" d="M83.867,35H43V2h.5A51.86,51.86,0,0,1,59.264,4.4a42.994,42.994,0,0,1,12.874,6.537,31.576,31.576,0,0,1,8.68,9.695A24.008,24.008,0,0,1,84,32.5a23.4,23.4,0,0,1-.134,2.5Z" transform="translate(17.251 -2)" fill="rgba(0,0,0,0.1)"/>
        <path id="Subtraction_3-3" d="M67.251,16H6.75a17.432,17.432,0,0,1,3.956-6.363,26.575,26.575,0,0,1,6.788-5.071,37.369,37.369,0,0,1,8.979-3.354,46.315,46.315,0,0,1,21.054,0,37.371,37.371,0,0,1,8.979,3.354,26.577,26.577,0,0,1,6.789,5.071A17.434,17.434,0,0,1,67.251,16h0Z" transform="translate(55.251 17)" fill="#389a38"/>
        <path id="Subtraction_7-3" d="M403.5,20H373.251V4a45.442,45.442,0,0,1,10.527,1.212,37.383,37.383,0,0,1,8.978,3.354,26.559,26.559,0,0,1,6.789,5.071A17.451,17.451,0,0,1,403.5,20Z" transform="translate(-281 13)" fill="rgba(0,0,0,0.1)"/>
        <path id="Subtraction_9-3" d="M404.251,18H374V2a45.382,45.382,0,0,1,10.526,1.212,37.377,37.377,0,0,1,8.979,3.354,26.559,26.559,0,0,1,6.789,5.071A17.426,17.426,0,0,1,404.25,18Z" transform="translate(-343.749 15)" fill="rgba(0,0,0,0.1)"/>
      </g>
      <g id="Trees-2" transform="translate(1415 685)">
        <rect id="Rectangle_84-2" width="8" height="24" transform="translate(10.807 89.263)" fill="#684515"/>
        <path id="Path_4-2" d="M547,676.737l-14.011,66.49S527.17,768.569,547,768.885s13.437-25.659,13.437-25.659Z" transform="translate(-532.193 -676.737)" fill="#389a38"/>
        <rect id="Rectangle_85-2" width="8.5" height="19.722" transform="translate(29.807 93.542)" fill="#684515"/>
        <path id="Subtraction_17-2" d="M16.356,96.889h-.019l-.336,0V4.737L29.436,71.226a41.46,41.46,0,0,1,.967,7.789,29.384,29.384,0,0,1-.554,6.91,15.529,15.529,0,0,1-2.813,6.409c-2.369,3.022-5.961,4.554-10.679,4.554h0Z" transform="translate(-1.193 -4.737)" fill="rgba(0,0,0,0.1)"/>
        <path id="Path_5-2" d="M544.976,676.737l-12.1,54.637s-5.023,20.825,12.1,21.085,11.6-21.085,11.6-21.085Z" transform="translate(-511.199 -656.546)" fill="#116320"/>
        <path id="Subtraction_16-2" d="M13.281,94.652h0l-.279,0V19.064l11.571,54.5A32.466,32.466,0,0,1,25.4,79.83a23.423,23.423,0,0,1-.426,5.6,12.8,12.8,0,0,1-2.29,5.252C20.645,93.315,17.48,94.652,13.281,94.652Z" transform="translate(20.807 1.263)" fill="rgba(0,0,0,0.1)"/>
      </g>
      <g id="Trees-3" transform="translate(1501 685)">
        <rect id="Rectangle_84-3" width="8" height="24" transform="translate(10.807 89.263)" fill="#684515"/>
        <path id="Path_4-3" d="M547,676.737l-14.011,66.49S527.17,768.569,547,768.885s13.437-25.659,13.437-25.659Z" transform="translate(-532.193 -676.737)" fill="#389a38"/>
        <rect id="Rectangle_85-3" width="8.5" height="19.722" transform="translate(29.807 93.542)" fill="#684515"/>
        <path id="Subtraction_17-3" d="M16.356,96.889h-.019l-.336,0V4.737L29.436,71.226a41.46,41.46,0,0,1,.967,7.789,29.384,29.384,0,0,1-.554,6.91,15.529,15.529,0,0,1-2.813,6.409c-2.369,3.022-5.961,4.554-10.679,4.554h0Z" transform="translate(-1.193 -4.737)" fill="rgba(0,0,0,0.1)"/>
        <path id="Path_5-3" d="M544.976,676.737l-12.1,54.637s-5.023,20.825,12.1,21.085,11.6-21.085,11.6-21.085Z" transform="translate(-511.199 -656.546)" fill="#116320"/>
        <path id="Subtraction_16-3" d="M13.281,94.652h0l-.279,0V19.064l11.571,54.5A32.466,32.466,0,0,1,25.4,79.83a23.423,23.423,0,0,1-.426,5.6,12.8,12.8,0,0,1-2.29,5.252C20.645,93.315,17.48,94.652,13.281,94.652Z" transform="translate(20.807 1.263)" fill="rgba(0,0,0,0.1)"/>
      </g>
    </g>
    <g id="GarageGrounds">
      <g id="Garage">
        <rect id="Rectangle_24" width="312" height="157" transform="translate(811 641)" fill="#b7b7b7"/>
        <rect id="Rectangle_79" width="245" height="132" transform="translate(846 666)" fill="rgba(0,0,0,0.4)"/>
        <rect id="Rectangle_80" width="245" height="9" transform="translate(846 673)" fill="rgba(0,0,0,0.4)"/>
        <rect id="Rectangle_80-2" width="245" height="9" transform="translate(846 691)" fill="rgba(0,0,0,0.4)"/>
        <rect id="Rectangle_80-3" width="245" height="9" transform="translate(846 709)" fill="rgba(0,0,0,0.4)"/>
        <rect id="Rectangle_80-4" width="245" height="9" transform="translate(846 727)" fill="rgba(0,0,0,0.4)"/>
        <rect id="Rectangle_80-5" width="245" height="9" transform="translate(846 745)" fill="rgba(0,0,0,0.4)"/>
        <rect id="Rectangle_80-6" width="245" height="9" transform="translate(846 763)" fill="rgba(0,0,0,0.4)"/>
        <rect id="Rectangle_80-7" width="245" height="9" transform="translate(846 781)" fill="rgba(0,0,0,0.4)"/>
        <rect id="Rectangle_81" width="331" height="10" transform="translate(803 631)" fill="#555"/>
        <rect id="Rectangle_82" width="312" height="9" transform="translate(811 641)" fill="rgba(0,0,0,0.1)"/>
        <rect id="Rectangle_83" width="155" height="157" transform="translate(968 641)" fill="rgba(0,0,0,0.1)"/>
      </g>
      <g id="Trees-4" transform="translate(780 683)">
        <rect id="Rectangle_84-4" width="8" height="24" transform="translate(10.807 89.263)" fill="#684515"/>
        <path id="Path_4-4" d="M547,676.737l-14.011,66.49S527.17,768.569,547,768.885s13.437-25.659,13.437-25.659Z" transform="translate(-532.193 -676.737)" fill="#389a38"/>
        <rect id="Rectangle_85-4" width="8.5" height="19.722" transform="translate(29.807 93.542)" fill="#684515"/>
        <path id="Subtraction_17-4" d="M16.356,96.889h-.019l-.336,0V4.737L29.436,71.226a41.46,41.46,0,0,1,.967,7.789,29.384,29.384,0,0,1-.554,6.91,15.529,15.529,0,0,1-2.813,6.409c-2.369,3.022-5.961,4.554-10.679,4.554h0Z" transform="translate(-1.193 -4.737)" fill="rgba(0,0,0,0.1)"/>
        <path id="Path_5-4" d="M544.976,676.737l-12.1,54.637s-5.023,20.825,12.1,21.085,11.6-21.085,11.6-21.085Z" transform="translate(-511.199 -656.546)" fill="#116320"/>
        <path id="Subtraction_16-4" d="M13.281,94.652h0l-.279,0V19.064l11.571,54.5A32.466,32.466,0,0,1,25.4,79.83a23.423,23.423,0,0,1-.426,5.6,12.8,12.8,0,0,1-2.29,5.252C20.645,93.315,17.48,94.652,13.281,94.652Z" transform="translate(20.807 1.263)" fill="rgba(0,0,0,0.1)"/>
      </g>
      <g id="Trees-5" transform="translate(1104 683)">
        <rect id="Rectangle_84-5" width="8" height="24" transform="translate(10.807 89.263)" fill="#684515"/>
        <path id="Path_4-5" d="M547,676.737l-14.011,66.49S527.17,768.569,547,768.885s13.437-25.659,13.437-25.659Z" transform="translate(-532.193 -676.737)" fill="#389a38"/>
        <rect id="Rectangle_85-5" width="8.5" height="19.722" transform="translate(29.807 93.542)" fill="#684515"/>
        <path id="Subtraction_17-5" d="M16.356,96.889h-.019l-.336,0V4.737L29.436,71.226a41.46,41.46,0,0,1,.967,7.789,29.384,29.384,0,0,1-.554,6.91,15.529,15.529,0,0,1-2.813,6.409c-2.369,3.022-5.961,4.554-10.679,4.554h0Z" transform="translate(-1.193 -4.737)" fill="rgba(0,0,0,0.1)"/>
        <path id="Path_5-5" d="M544.976,676.737l-12.1,54.637s-5.023,20.825,12.1,21.085,11.6-21.085,11.6-21.085Z" transform="translate(-511.199 -656.546)" fill="#116320"/>
        <path id="Subtraction_16-5" d="M13.281,94.652h0l-.279,0V19.064l11.571,54.5A32.466,32.466,0,0,1,25.4,79.83a23.423,23.423,0,0,1-.426,5.6,12.8,12.8,0,0,1-2.29,5.252C20.645,93.315,17.48,94.652,13.281,94.652Z" transform="translate(20.807 1.263)" fill="rgba(0,0,0,0.1)"/>
      </g>
      <g id="Pot" transform="translate(1111 780)">
        <rect id="Rectangle_88" width="33" height="18" fill="#b5b4af"/>
        <rect id="Rectangle_89" width="17" height="18" transform="translate(16)" fill="rgba(0,0,0,0.1)"/>
        <rect id="Rectangle_90" width="33" height="2" fill="rgba(0,0,0,0.1)"/>
      </g>
      <g id="Pot-2" transform="translate(787 780)">
        <rect id="Rectangle_88-2" width="33" height="18" fill="#b5b4af"/>
        <rect id="Rectangle_89-2" width="17" height="18" transform="translate(16)" fill="rgba(0,0,0,0.1)"/>
        <rect id="Rectangle_90-2" width="33" height="2" fill="rgba(0,0,0,0.1)"/>
      </g>
      <text id="Garažica" transform="translate(826 555)" fill="#efefef" font-size="72" font-family="Raleway-Regular, Raleway"><tspan x="0" y="0">Garažica</tspan></text>
    </g>
    <path id="Ground" d="M0,0H1920V44H0Z" transform="translate(7 798)" fill="#484848"/>
    <path id="GroundShadow" d="M0,0H1920V22H0Z" transform="translate(7 820)" fill="rgba(0,0,0,0.4)"/>
  </g>
</svg>
