<svg version="1" xmlns="http://www.w3.org/2000/svg" width="682.667" height="682.667" viewBox="0 0 512.000000 512.000000"><path d="M58.7 58.8L0 117.5V512h394.5l58.8-58.8 58.7-58.7V0H117.5L58.7 58.8zM275 113.1c25.8 3.1 45.5 12 62.2 27.8 10.3 9.7 23.8 28.8 21.6 30.5-2.1 1.8-19 12.7-19.2 12.4-.1-.2-2.8-4.2-5.9-8.9-13-19.8-33.4-33.2-57-37.5-12.6-2.3-31.4-2.1-42 .5-36.4 8.7-63.2 37.9-74.4 81-2.6 9.8-2.8 12.1-2.8 30.1 0 13 .4 21.3 1.3 25 6.3 25.6 15 42.5 29.9 58 24.3 25.5 53.8 35.9 86.3 30.6 22.5-3.7 39.8-13.2 59.3-32.7l11.7-11.7-.2-22.9-.3-22.8-30.2-.3-30.3-.2v-20h82v134h-21v-20c0-11-.3-20-.6-20-.4 0-4.6 3.7-9.3 8.3-32 30.8-74.2 40.8-114.8 27.2-23.3-7.8-48.5-27.3-64.4-49.8-9.8-13.9-18.8-34.5-23.1-52.8-3.1-12.9-3.3-45.8-.4-58.9 12.5-57.5 54.1-99.3 106.2-106.9 8.5-1.2 25.6-1.3 35.4 0z"/></svg>